<?xml version="1.0" encoding="UTF-8"?>
<svg width="68px" height="38px" viewBox="0 0 68 38" version="1.1" xmlns="http://www.w3.org/2000/svg" xmlns:xlink="http://www.w3.org/1999/xlink">
    <!-- Generator: Sketch 43.1 (39012) - http://www.bohemiancoding.com/sketch -->
    <title>Cloudy</title>
    <desc>Created with Sketch.</desc>
    <defs></defs>
    <g id="icons" stroke="none" stroke-width="1" fill="none" fill-rule="evenodd">
        <g id="Cloudy">
            <path d="M46.4005,37.0895 C52.2895,37.0895 57.0645,32.3155 57.0645,26.4255 C57.0645,20.5365 52.2895,15.7615 46.4005,15.7615 C45.3425,7.2635 38.1335,0.6515 29.3765,0.6515 C22.4615,0.6515 16.5125,4.7765 13.8485,10.6995 C13.7635,10.6975 13.6805,10.6935 13.5955,10.6935 C6.3065,10.6935 0.3975,16.6025 0.3975,23.8915 C0.3975,31.1805 6.3065,37.0895 13.5955,37.0895" id="Fill-237" fill="#FEFEFE"></path>
            <path d="M40.018,20.515 C35.441,20.515 31.731,24.225 31.731,28.802 C31.731,33.379 35.441,37.09 40.018,37.09 L60.618,37.09 C64.316,37.09 67.314,34.092 67.314,30.393 C67.314,26.695 64.316,23.697 60.618,23.697 C59.953,18.361 55.427,14.208 49.927,14.208 C45.586,14.208 41.85,16.799 40.177,20.518 C40.124,20.517 40.072,20.515 40.018,20.515 Z" id="Fill-240" fill="#D3E8F7"></path>
        </g>
    </g>
</svg>