<?xml version="1.0" encoding="UTF-8"?>
<svg width="68px" height="41px" viewBox="0 0 68 41" version="1.1" xmlns="http://www.w3.org/2000/svg" xmlns:xlink="http://www.w3.org/1999/xlink">
    <!-- Generator: Sketch 43.1 (39012) - http://www.bohemiancoding.com/sketch -->
    <title>Cloudy + sun</title>
    <desc>Created with Sketch.</desc>
    <defs></defs>
    <g id="icons" stroke="none" stroke-width="1" fill="none" fill-rule="evenodd">
        <g id="Cloudy-+-sun">
            <path d="M49.152,26.446 C56.312,26.446 62.116,20.643 62.116,13.483 C62.116,6.324 56.312,0.52 49.152,0.52 C41.993,0.52 36.19,6.324 36.19,13.483 C36.19,20.643 41.993,26.446 49.152,26.446 Z" id="Fill-225" fill="#FFC442"></path>
            <path d="M46.8326,40.7795 C52.7216,40.7795 57.4966,36.0055 57.4966,30.1155 C57.4966,24.2265 52.7216,19.4525 46.8326,19.4525 C45.7746,10.9535 38.5656,4.3415 29.8086,4.3415 C22.8926,4.3415 16.9446,8.4665 14.2796,14.3895 C14.1956,14.3875 14.1126,14.3835 14.0276,14.3835 C6.7386,14.3835 0.8296,20.2925 0.8296,27.5815 C0.8296,34.8705 6.7386,40.7795 14.0276,40.7795" id="Fill-227" fill="#FEFEFE"></path>
            <path d="M40.45,24.204 C35.874,24.204 32.162,27.914 32.162,32.492 C32.162,37.07 35.874,40.78 40.45,40.78 L61.05,40.78 C64.748,40.78 67.746,37.782 67.746,34.083 C67.746,30.385 64.748,27.387 61.05,27.387 C60.385,22.051 55.859,17.898 50.36,17.898 C46.017,17.898 42.282,20.49 40.609,24.208 C40.557,24.207 40.504,24.204 40.45,24.204 Z" id="Fill-229" fill="#D3E8F7"></path>
        </g>
    </g>
</svg>